<?xml version="1.0" standalone="no"?>
<!DOCTYPE svg PUBLIC "-//W3C//DTD SVG 20010904//EN"
 "http://www.w3.org/TR/2001/REC-SVG-20010904/DTD/svg10.dtd">
<svg version="1.0" xmlns="http://www.w3.org/2000/svg"
 width="260.000000pt" height="260.000000pt" viewBox="0 0 260.000000 260.000000"
 preserveAspectRatio="xMidYMid meet">
<metadata>
Created by potrace 1.11, written by Peter Selinger 2001-2013
</metadata>
<g transform="translate(0.000000,260.000000) scale(0.100000,-0.100000)"
fill="#000000" stroke="none">
<path d="M786 2589 c3 -5 9 -7 14 -4 4 3 13 -2 19 -9 9 -11 9 -16 0 -22 -7 -4
-9 -3 -6 3 4 6 -4 13 -18 15 -13 3 -22 2 -20 -2 2 -4 -10 -7 -27 -8 -21 0 -40
-10 -58 -31 -15 -16 -25 -32 -22 -35 3 -3 0 -6 -6 -6 -18 0 -14 18 6 29 9 6
12 11 6 11 -5 0 -20 -9 -31 -20 -14 -13 -39 -20 -71 -22 -30 -2 -49 -8 -49
-15 0 -7 3 -10 7 -8 3 2 7 -5 7 -16 2 -17 0 -18 -13 -4 -21 21 -26 19 -19 -7
7 -23 7 -23 -9 -3 -17 20 -17 20 -11 -1 4 -14 1 -21 -10 -21 -11 0 -13 6 -9
21 6 21 6 21 -9 1 -8 -11 -13 -27 -12 -37 4 -18 -13 -24 -59 -19 -16 1 -17 -1
-6 -14 7 -9 10 -18 6 -22 -3 -3 -6 -1 -6 5 0 7 -5 12 -11 12 -5 0 -7 -4 -4
-10 3 -5 -3 -10 -14 -10 -12 0 -21 -5 -21 -11 0 -5 5 -7 11 -3 6 3 3 -8 -6
-26 -9 -17 -19 -29 -22 -26 -3 3 0 13 8 23 12 15 12 16 -1 8 -8 -5 -24 -9 -35
-8 -16 1 -16 1 -3 -3 26 -8 22 -32 -5 -30 -18 1 -22 -4 -20 -24 1 -14 0 -20
-3 -13 -3 7 -12 9 -20 6 -12 -4 -12 -8 -2 -21 10 -12 10 -14 1 -8 -9 5 -13 -1
-13 -19 0 -20 -4 -26 -16 -21 -10 4 -13 2 -8 -6 5 -8 2 -9 -10 -5 -14 6 -15 4
-5 -14 6 -13 7 -19 1 -15 -6 3 -12 3 -15 -1 -2 -5 -2 -2 -1 5 2 6 -1 12 -6 12
-6 0 -10 -9 -10 -21 0 -13 -4 -18 -12 -13 -7 4 -8 3 -4 -4 4 -7 2 -12 -5 -12
-7 0 -10 -3 -7 -6 4 -3 17 -1 30 6 20 10 21 10 6 -3 -10 -8 -15 -17 -12 -20 3
-3 -5 -3 -18 0 -23 5 -23 5 -3 -11 16 -13 17 -15 3 -10 -18 6 -21 -3 -21 -58
0 -21 -8 -23 -26 -5 -11 10 -11 8 -2 -10 7 -13 8 -23 2 -23 -5 0 -11 6 -14 13
-2 6 -3 -9 -1 -36 2 -28 -1 -45 -7 -41 -5 3 -7 15 -3 26 4 15 2 19 -7 16 -19
-7 -12 -40 14 -61 l22 -18 -23 11 c-13 6 -25 10 -25 8 -1 -2 -11 -14 -22 -28
-13 -16 -14 -20 -4 -12 14 10 18 10 23 -3 3 -9 2 -14 -2 -11 -4 2 -14 0 -22
-5 -13 -8 -13 -10 0 -19 11 -7 11 -10 2 -10 -10 0 -13 -57 -11 -280 1 -196 4
-278 12 -273 7 4 8 0 3 -12 -4 -11 0 -25 10 -36 17 -19 40 -16 28 3 -4 7 -2 8
5 4 9 -6 9 -11 0 -22 -8 -10 -8 -14 0 -14 6 0 11 -8 11 -17 0 -15 -1 -15 -13
2 -10 12 -16 14 -21 7 -4 -7 -2 -12 4 -12 6 0 8 -4 5 -10 -3 -5 2 -10 12 -10
15 0 18 -7 17 -38 0 -24 4 -39 11 -39 6 0 12 6 12 13 0 7 -3 11 -7 9 -4 -2 -7
2 -7 9 0 29 24 4 26 -27 1 -18 3 -39 3 -47 2 -23 25 -43 32 -27 4 8 5 7 5 -3
-2 -30 1 -41 10 -36 5 3 11 0 14 -8 4 -10 -1 -12 -16 -8 -13 3 -18 1 -14 -4 9
-9 13 -10 45 -13 16 -2 15 -3 -2 -16 -11 -8 -17 -17 -15 -20 3 -3 16 5 29 17
18 17 22 18 17 5 -3 -9 -2 -19 4 -22 5 -4 7 -10 4 -15 -8 -12 6 -41 16 -34 5
3 6 10 3 16 -4 7 -2 8 4 4 8 -5 9 -13 3 -25 -7 -13 -6 -18 5 -19 7 -1 21 -3
30 -4 10 -1 14 -8 11 -20 -4 -15 -1 -18 14 -13 15 5 19 1 19 -19 0 -19 4 -24
20 -21 14 3 20 -2 20 -15 0 -12 8 -20 23 -22 15 -2 21 -9 19 -23 -2 -17 -1
-17 11 4 11 19 15 20 20 8 3 -9 1 -18 -6 -21 -7 -2 -4 -5 6 -5 10 -1 15 -5 12
-11 -11 -17 5 -32 21 -19 10 8 14 8 14 0 0 -6 8 -11 19 -11 12 0 18 -7 17 -17
0 -11 7 -18 19 -18 61 -4 64 -5 60 -23 -2 -13 3 -18 21 -18 13 0 24 6 24 13 0
11 3 11 14 1 12 -11 12 -14 0 -21 -8 -4 -14 -13 -14 -20 0 -8 3 -8 8 -2 10 14
32 17 32 5 0 -6 10 -8 24 -4 13 3 27 1 31 -5 4 -8 12 -8 26 -1 12 7 19 7 19 1
0 -6 6 -8 14 -5 8 3 17 1 20 -4 3 -5 -8 -8 -24 -6 -17 2 -30 -1 -30 -7 0 -6 4
-7 10 -4 5 3 10 3 10 -2 0 -4 46 -8 103 -7 56 0 108 -4 115 -9 6 -5 12 -6 12
-1 0 5 16 9 35 9 19 0 35 -4 35 -8 0 -4 8 -3 18 2 13 7 23 6 30 -1 7 -7 12 -8
12 -2 0 6 27 10 60 9 44 0 59 3 55 12 -6 17 0 16 19 -3 9 -8 16 -11 16 -6 0 6
10 8 23 4 19 -5 20 -4 8 11 -7 9 -18 14 -24 10 -6 -4 -7 -1 -2 6 5 9 10 10 18
2 13 -13 30 -15 22 -2 -3 6 6 8 21 5 19 -3 24 -1 18 8 -6 10 -4 10 7 2 21 -16
57 -15 63 2 3 8 1 12 -4 9 -6 -3 -7 1 -4 9 4 11 14 14 29 10 18 -4 23 -2 22
12 -2 14 5 18 28 19 17 0 36 4 44 9 10 6 12 6 6 -3 -5 -9 -2 -9 13 0 16 10 18
16 10 26 -7 9 -7 13 0 13 6 0 16 -8 21 -17 10 -17 10 -16 11 2 0 11 5 27 11
35 9 13 10 12 5 -2 -3 -10 -1 -18 4 -18 5 0 7 -9 5 -20 -2 -12 0 -18 6 -14 6
3 8 9 5 12 -7 7 13 32 26 32 6 0 5 -7 -2 -15 -11 -13 -10 -14 4 -9 13 5 16 -1
16 -31 0 -22 4 -34 10 -30 6 4 8 11 5 16 -4 5 -1 9 5 9 7 0 10 -7 7 -15 -4 -8
-2 -17 4 -20 5 -4 7 -10 4 -15 -3 -4 2 -13 10 -20 10 -9 15 -9 15 -1 0 6 -4
11 -9 11 -5 0 -8 7 -7 15 1 9 6 15 12 15 5 -1 8 -8 6 -17 -2 -8 1 -12 6 -9 5
3 8 -6 6 -19 -2 -20 2 -25 21 -25 18 0 23 -5 20 -20 -3 -16 2 -20 21 -20 13 0
24 -6 24 -12 0 -10 2 -10 9 0 7 11 9 10 14 -3 4 -9 3 -13 -3 -10 -6 3 -10 1
-10 -4 0 -6 5 -11 10 -11 6 0 9 -3 9 -7 -3 -21 2 -34 11 -28 6 4 7 12 4 18 -5
9 -4 9 5 1 7 -6 13 -21 14 -33 1 -12 6 -19 12 -17 5 2 9 9 7 15 -1 7 2 10 7 7
5 -3 8 -19 7 -35 -1 -21 2 -27 12 -24 7 3 11 12 8 20 -4 8 -1 11 5 8 6 -4 8
-13 5 -21 -3 -8 -1 -14 4 -14 6 0 10 -5 10 -11 0 -5 -6 -7 -12 -3 -9 5 -10 4
-3 -4 6 -5 19 -12 30 -14 14 -2 20 -11 20 -30 -1 -32 25 -27 26 6 1 19 2 18 8
-4 4 -14 13 -24 19 -23 6 2 9 -3 6 -11 -3 -7 2 -16 10 -19 9 -4 16 -13 16 -21
0 -7 7 -17 16 -20 10 -4 14 -12 10 -23 -4 -10 -4 -14 -1 -11 4 4 17 3 30 -2
14 -5 26 -5 33 2 9 9 10 5 7 -12 -3 -13 1 -28 8 -33 8 -6 6 -7 -6 -3 -10 3
-16 2 -12 -3 3 -5 -1 -11 -7 -14 -7 -2 78 -5 190 -6 l202 -2 0 163 0 163 -25
12 c-15 6 -27 7 -31 2 -10 -17 -21 0 -16 26 2 15 0 25 -7 25 -7 0 -9 4 -6 10
3 6 -1 7 -9 4 -12 -5 -16 0 -16 18 0 21 -5 25 -31 26 -30 1 -69 22 -41 22 7 0
12 5 12 12 0 6 -3 8 -7 5 -3 -4 -12 -2 -20 4 -10 9 -13 8 -13 0 0 -7 -5 -9
-11 -5 -8 4 -6 10 6 17 12 6 20 6 25 -3 5 -9 9 -9 14 -1 7 10 2 12 -34 15 -8
1 -14 9 -12 19 3 15 -8 22 -30 18 -5 0 -8 8 -8 20 0 15 -5 19 -22 17 -12 -2
-23 3 -25 12 -4 13 -3 13 6 0 8 -12 10 -11 9 6 -1 11 -8 21 -15 21 -6 0 -10
-3 -8 -7 2 -3 0 -12 -6 -20 -6 -11 -9 -8 -9 12 0 37 -10 58 -26 58 -8 0 -14 6
-14 14 0 18 -35 30 -52 20 -10 -6 -10 -4 0 8 11 14 10 17 -8 23 -13 4 -19 12
-16 21 6 17 -4 23 -44 28 -35 4 -46 11 -31 21 6 3 11 1 11 -4 0 -17 17 -13 24
5 3 8 2 12 -4 9 -6 -3 -16 -3 -22 2 -7 4 -20 8 -28 8 -9 0 -14 7 -12 19 3 14
-1 17 -13 12 -12 -4 -18 0 -22 14 -3 11 -9 21 -14 21 -5 1 -13 3 -19 4 -5 1
-14 3 -20 4 -5 0 -10 9 -10 18 0 15 2 14 15 -3 14 -18 14 -18 10 4 -5 26 11
30 18 5 4 -17 5 -17 6 0 0 10 -6 25 -14 34 -14 14 -14 17 2 33 10 10 20 15 23
13 3 -3 -3 -10 -12 -17 -10 -7 -15 -16 -11 -19 10 -10 25 -8 18 2 -3 5 6 18
20 29 17 14 21 22 13 25 -9 4 -9 8 -3 14 6 4 11 22 12 38 4 64 7 76 21 70 10
-3 12 0 8 10 -9 24 10 17 22 -8 9 -19 10 -16 7 21 -3 29 0 40 7 36 7 -4 8 -2
4 5 -4 6 -3 18 3 25 9 11 8 18 -4 30 -10 9 -12 16 -5 16 7 0 10 13 9 34 -2 19
0 38 4 42 4 4 1 14 -6 23 -11 14 -10 14 6 2 14 -11 21 -11 29 -3 9 9 8 12 -5
12 -9 0 -17 5 -17 11 0 5 5 7 12 3 8 -5 9 -2 5 9 -4 10 -2 17 5 17 7 0 6 5 -2
15 -7 8 -9 15 -4 15 5 0 9 11 9 25 0 14 -2 25 -5 25 -3 0 -3 25 -2 56 3 45 1
55 -10 49 -7 -3 -5 0 4 8 10 8 15 16 12 19 -3 3 -6 20 -6 37 -1 17 -5 31 -9
31 -4 0 -6 -9 -4 -20 2 -11 0 -20 -6 -20 -5 0 -9 3 -10 8 0 4 -2 15 -4 25 -2
9 0 15 5 12 4 -3 13 1 19 9 9 11 6 13 -14 11 -14 -2 -25 1 -25 6 0 5 9 9 19 9
11 0 22 4 25 9 4 5 -3 7 -14 4 -12 -3 -22 1 -26 11 -8 21 -25 10 -18 -12 2 -9
-1 -7 -7 6 -7 12 -16 22 -21 22 -16 0 -21 -32 -7 -41 10 -6 10 -9 2 -9 -7 0
-13 -7 -13 -15 0 -8 -4 -15 -10 -15 -14 0 -13 13 3 29 10 10 9 11 -5 6 -10 -4
-18 -13 -18 -21 0 -8 -5 -14 -11 -14 -5 0 -8 -4 -5 -8 2 -4 0 -14 -5 -22 -7
-11 -8 -7 -5 13 4 21 0 29 -17 38 -19 8 -20 8 -7 -3 18 -16 14 -58 -5 -58 -9
0 -12 6 -9 18 5 14 4 15 -5 2 -6 -8 -11 -28 -11 -44 0 -22 -4 -27 -17 -22 -15
5 -14 3 2 -10 20 -16 20 -16 -2 -9 -18 5 -23 2 -24 -12 -4 -58 -4 -70 3 -85 6
-13 4 -16 -12 -13 -11 2 -24 6 -29 10 -5 3 -13 0 -17 -6 -4 -7 -3 -10 2 -6 5
3 20 -1 34 -9 14 -7 18 -13 11 -14 -12 0 -12 -3 -3 -12 19 -19 14 -28 -15 -24
-16 2 -21 1 -12 -1 11 -3 15 -12 11 -28 -2 -15 -9 -22 -18 -18 -8 3 -14 1 -15
-3 0 -5 -3 -49 -5 -98 -2 -49 -6 -91 -9 -95 -4 -3 -13 2 -20 13 -13 17 -14 16
-11 -10 2 -15 9 -30 17 -32 11 -3 10 -1 -1 7 -9 7 -10 11 -3 11 22 0 25 -21 4
-27 -19 -5 -25 -15 -22 -35 1 -8 -15 -12 -38 -8 -13 1 -13 -1 -2 -14 11 -13
17 -14 30 -4 14 12 14 11 2 -4 -10 -14 -17 -15 -33 -7 -13 7 -18 7 -14 1 3 -6
3 -12 -1 -15 -5 -2 -2 -2 5 0 7 1 11 -1 7 -6 -3 -5 1 -12 7 -15 7 -3 3 -3 -9
0 -17 4 -23 1 -23 -10 0 -9 -6 -16 -12 -16 -9 0 -8 -4 2 -11 12 -8 10 -9 -10
-7 -21 3 -25 -1 -22 -22 4 -24 3 -24 -11 -5 -9 11 -19 17 -23 12 -4 -4 -2 -7
4 -7 7 0 12 -9 12 -21 0 -13 4 -18 13 -13 7 4 9 3 4 -2 -9 -10 -14 -11 -51
-13 -18 -1 -23 -6 -21 -25 2 -18 -1 -23 -11 -19 -8 3 -11 10 -7 17 3 6 3 8 -2
4 -4 -4 -13 -18 -20 -30 -6 -13 -17 -22 -25 -20 -8 2 -10 -3 -7 -13 4 -8 2
-16 -3 -16 -6 -1 -14 -3 -20 -4 -5 -1 -21 -3 -35 -4 -21 -1 -24 -4 -16 -19 8
-15 5 -18 -24 -19 -46 -1 -68 -10 -59 -24 4 -8 3 -9 -5 -5 -6 4 -9 11 -6 16 7
12 -46 6 -70 -8 -17 -9 -17 -11 -3 -12 9 0 19 6 21 13 3 6 5 0 4 -15 -1 -19
-5 -24 -13 -17 -17 14 -135 12 -149 -3 -4 -4 4 -5 19 -2 17 3 26 0 26 -8 0 -9
-13 -12 -46 -9 -37 2 -45 0 -38 -10 6 -11 5 -12 -7 -3 -12 11 -63 15 -205 17
-24 0 -41 5 -41 12 0 6 6 12 13 12 7 0 11 -4 8 -9 -3 -4 0 -8 5 -8 6 0 11 5
11 11 0 8 4 8 14 0 10 -9 16 -9 21 -1 4 6 4 14 1 17 -3 4 -6 1 -6 -6 0 -7 -5
-9 -12 -4 -7 4 -32 8 -56 9 -23 0 -45 3 -48 7 -3 3 -13 3 -22 0 -15 -4 -15 -3
-2 6 20 14 43 14 34 -1 -4 -7 -3 -8 5 -4 17 11 3 27 -22 25 -12 -1 -46 -1 -74
-1 -49 2 -53 4 -53 26 0 19 -4 23 -20 19 -16 -4 -20 0 -20 18 0 19 -2 21 -9 9
-6 -8 -7 -18 -5 -22 3 -4 -2 -5 -10 -2 -9 3 -16 10 -16 16 0 5 5 6 10 3 6 -3
10 -1 10 4 0 6 -5 11 -11 11 -5 0 -8 4 -4 9 8 13 -6 20 -48 23 -20 1 -34 5
-31 9 2 4 -1 11 -7 14 -6 4 -8 18 -4 32 5 21 4 23 -9 11 -7 -7 -11 -17 -8 -23
3 -5 1 -7 -3 -2 -15 13 -17 49 -3 41 9 -5 9 -2 -1 9 -14 17 -26 24 -17 9 2 -4
1 -14 -5 -22 -6 -11 -9 -7 -10 15 -1 17 -1 33 0 38 0 4 -4 7 -10 7 -5 0 -8 4
-5 8 3 5 -11 8 -30 7 -28 -2 -32 0 -23 11 14 17 23 18 13 2 -4 -7 -3 -8 4 -4
20 12 13 28 -9 21 -18 -6 -20 -3 -19 22 3 44 0 49 -15 29 -11 -15 -15 -16 -16
-5 0 8 -2 30 -4 49 -2 19 -5 47 -6 62 -2 15 -7 25 -11 22 -4 -2 -5 -13 -3 -23
2 -10 -3 -18 -11 -18 -9 0 -11 4 -4 12 11 13 -11 40 -23 28 -4 -3 -7 -1 -7 5
0 7 5 12 10 12 6 0 10 9 10 21 0 13 4 18 13 13 7 -5 6 0 -3 11 -8 10 -14 26
-12 37 2 10 0 18 -5 18 -4 0 -8 -13 -8 -29 -1 -16 3 -27 9 -24 5 3 6 1 2 -6
-12 -19 -23 -3 -21 31 1 18 -2 38 -7 45 -5 7 -5 14 2 18 6 3 7 11 4 17 -4 6
-6 28 -6 49 1 28 -3 39 -16 42 -16 4 -16 5 1 6 9 0 17 7 17 14 0 9 2 9 9 -1 7
-11 9 -10 14 3 4 9 3 14 -1 11 -17 -10 -34 11 -24 30 5 11 8 47 7 81 -1 34 2
60 7 57 4 -3 8 0 8 7 0 7 3 9 6 6 4 -4 1 -13 -6 -22 -7 -8 -8 -15 -3 -15 5 0
15 12 21 26 7 14 8 23 2 19 -5 -3 -10 -1 -10 6 0 8 -4 8 -15 -1 -10 -9 -15 -9
-15 -1 0 6 5 11 11 11 5 0 7 6 3 13 -6 9 -4 9 8 -1 10 -8 19 -9 22 -3 3 5 0
11 -6 14 -10 3 -10 7 0 19 10 13 10 17 0 22 -9 4 -9 5 2 5 32 -2 35 3 36 53 0
53 7 59 55 59 11 0 16 11 17 37 1 39 39 84 65 78 6 -1 9 -1 4 1 -4 3 -5 9 -1
14 3 5 1 9 -5 9 -5 0 -12 -6 -14 -12 -4 -10 -6 -10 -6 -1 -1 20 38 36 54 23
10 -8 15 -8 21 1 4 8 3 9 -4 5 -17 -10 -15 9 1 23 8 6 18 7 22 3 5 -4 5 -1 1
6 -4 7 -2 12 6 13 7 0 4 4 -7 9 -19 8 -19 9 3 9 12 1 22 7 22 14 0 9 3 8 9 -2
7 -11 9 -11 13 0 4 12 8 12 21 1 13 -11 15 -11 13 2 -1 9 -6 19 -11 23 -4 4
-5 2 -1 -4 10 -17 1 -16 -13 1 -10 12 -7 14 18 10 19 -3 31 -1 31 6 0 6 -4 8
-10 5 -6 -4 -7 1 -3 11 5 14 8 13 19 -7 l13 -24 1 23 c0 16 6 22 21 22 15 0
19 5 15 15 -3 8 -2 15 2 16 7 1 53 5 115 10 31 3 36 6 31 22 -4 12 -2 17 4 13
6 -3 17 3 25 14 13 18 15 19 21 5 3 -9 2 -13 -3 -10 -5 3 -12 1 -15 -3 -3 -5
22 -8 54 -8 33 1 60 5 60 9 0 4 10 3 21 -4 13 -6 19 -7 15 -1 -3 6 0 13 6 15
7 3 0 5 -17 4 -16 0 -34 -3 -40 -6 -19 -10 -34 -9 -38 3 -3 8 28 11 122 10
153 -2 151 -2 151 -14 0 -7 -6 -7 -20 0 -15 8 -20 8 -20 -2 0 -9 -3 -9 -8 -2
-9 14 -63 14 -54 0 3 -6 -2 -5 -11 3 -9 7 -17 9 -17 3 0 -15 32 -24 40 -11 4
6 10 7 13 2 3 -5 27 -8 54 -7 61 2 61 2 43 14 -8 5 -10 10 -4 10 11 0 41 -30
37 -37 -2 -1 -3 -7 -3 -11 0 -7 12 -9 106 -16 42 -4 84 -32 77 -53 -2 -6 1
-14 7 -18 6 -3 10 -3 9 2 -3 18 1 33 10 33 5 0 7 -9 4 -20 -5 -19 3 -24 43
-23 7 0 9 -8 6 -20 -4 -14 -1 -18 9 -15 8 3 20 -4 27 -16 13 -20 13 -20 6 3
-4 16 -3 21 5 17 6 -4 11 -13 11 -19 0 -12 59 -52 72 -49 9 2 4 -26 -7 -35 -4
-4 -5 -2 0 6 6 10 4 12 -5 6 -9 -6 -11 -4 -5 6 8 12 6 12 -8 0 -18 -14 -23
-26 -8 -16 5 3 12 1 15 -3 3 -5 17 -8 31 -6 20 2 25 -1 20 -15 -3 -12 1 -17
15 -18 11 -1 20 3 20 8 0 6 -4 7 -10 4 -5 -3 -10 -1 -10 5 0 6 11 8 25 6 14
-3 23 -1 20 4 -3 5 -1 11 5 15 5 3 10 1 10 -4 0 -6 4 -11 8 -11 5 0 8 10 7 23
-3 30 4 40 20 27 9 -8 14 -6 19 5 3 9 2 13 -3 10 -5 -3 -13 0 -17 7 -4 7 -4
10 1 6 5 -5 14 1 22 12 8 11 21 20 29 20 8 0 14 6 14 13 0 9 3 8 9 -2 6 -9 11
-10 15 -2 4 6 -3 16 -16 21 -22 10 -22 10 5 7 22 -3 25 -2 16 9 -6 7 -16 12
-22 11 -7 -1 -11 4 -10 11 2 6 -2 12 -8 12 -5 0 -7 5 -4 10 11 17 24 11 20 -9
-3 -14 1 -18 12 -14 10 4 11 8 3 13 -6 4 -11 11 -10 16 2 10 -32 23 -43 17 -8
-5 -15 11 -20 44 -2 12 -6 25 -10 29 -3 4 -5 -3 -2 -15 5 -27 -11 -28 -18 -1
-3 11 -12 20 -21 20 -9 0 -16 7 -16 16 0 13 3 14 13 5 10 -8 14 -7 14 3 0 8
-11 12 -32 11 -17 -2 -42 4 -56 12 -20 12 -21 13 -3 8 13 -3 21 -1 21 8 0 9
-9 12 -25 9 -19 -4 -23 -2 -17 8 6 10 4 12 -8 7 -10 -3 -17 -2 -17 2 0 5 6 11
13 14 6 2 -1 4 -16 4 -36 1 -43 8 -26 30 13 16 12 17 -3 4 -12 -9 -18 -10 -18
-2 0 6 -5 11 -11 11 -5 0 -7 -5 -4 -10 4 -6 -10 -1 -30 10 -20 11 -34 16 -30
10 4 -6 -5 -10 -21 -10 -26 0 -26 0 -7 18 10 9 12 13 4 7 -11 -8 -13 -6 -9 6
4 9 1 16 -7 16 -7 0 -11 -6 -8 -14 3 -7 1 -13 -5 -13 -6 0 -12 5 -14 11 -2 6
-21 11 -43 11 -31 0 -35 2 -21 10 9 5 28 7 42 4 13 -4 24 -2 24 3 0 5 -16 8
-35 7 -19 -1 -35 3 -35 9 0 5 -4 4 -9 -4 -7 -11 -9 -11 -14 0 -4 10 -6 9 -6
-3 -1 -9 -5 -19 -10 -22 -5 -4 -7 3 -4 13 4 16 0 19 -21 17 -22 -3 -24 -1 -14
11 9 11 13 11 19 1 7 -11 9 -11 9 0 0 7 5 10 12 6 6 -4 8 -3 5 3 -4 7 -107 11
-287 11 -168 0 -278 -4 -274 -9z m494 -9 c-8 -5 -19 -10 -25 -10 -5 0 -3 5 5
10 8 5 20 10 25 10 6 0 3 -5 -5 -10z m-415 -10 c-3 -5 -12 -10 -18 -10 -7 0
-6 4 3 10 19 12 23 12 15 0z m-108 -23 c0 -8 -5 -14 -11 -14 -6 0 -15 -2 -21
-4 -5 -2 -10 0 -10 6 0 5 6 10 13 12 8 1 16 4 20 7 8 8 9 8 9 -7z m-199 -92
c-3 -3 -9 2 -12 12 -6 14 -5 15 5 6 7 -7 10 -15 7 -18z m1067 -33 c-3 -3 -11
0 -18 7 -9 10 -8 11 6 5 10 -3 15 -9 12 -12z m-694 -99 c13 -16 12 -17 -3 -4
-17 13 -22 21 -14 21 2 0 10 -8 17 -17z m-81 3 c0 -2 -7 -7 -16 -10 -8 -3 -12
-2 -9 4 6 10 25 14 25 6z m-42 -41 c-3 -3 -9 2 -12 12 -6 14 -5 15 5 6 7 -7
10 -15 7 -18z m496 4 c-3 -5 -10 -7 -15 -3 -5 3 -7 10 -3 15 3 5 10 7 15 3 5
-3 7 -10 3 -15z m-787 -176 c-14 -14 -19 -15 -29 -4 -11 10 -10 11 5 6 10 -4
17 -2 17 4 0 6 5 11 12 11 8 0 6 -6 -5 -17z m-121 -158 c1 -8 -4 -11 -12 -8
-15 6 -18 16 -7 26 8 9 16 1 19 -18z m1736 -302 c-6 -2 -10 -9 -7 -13 3 -5 1
-11 -4 -14 -7 -5 -8 11 -2 32 1 1 7 2 14 1 9 0 9 -2 -1 -6z m-246 -253 c0 -12
-4 -16 -9 -11 -5 5 -6 14 -3 20 10 15 12 14 12 -9z m-22 -52 c8 -6 7 -8 -1 -8
-6 0 -10 -9 -8 -19 2 -14 -1 -18 -10 -15 -8 4 -12 17 -10 37 4 42 6 45 12 27
3 -8 11 -18 17 -22z m233 -120 c-3 -7 -5 -2 -5 12 0 14 2 19 5 13 2 -7 2 -19
0 -25z m-2063 -34 c3 -8 2 -12 -4 -9 -6 3 -10 10 -10 16 0 14 7 11 14 -7z
m2061 -14 c3 -6 -1 -7 -9 -4 -18 7 -21 14 -7 14 6 0 13 -4 16 -10z m-1512
-317 c-3 -7 -6 -13 -8 -13 -2 0 -5 6 -8 13 -3 8 1 14 8 14 7 0 11 -6 8 -14z
m750 -118 c-7 -21 -12 -19 -10 4 0 11 5 18 9 15 4 -3 5 -11 1 -19z m-502 -28
c-10 -9 -11 -8 -5 6 3 10 9 15 12 12 3 -3 0 -11 -7 -18z m423 17 c27 -10 18
-20 -21 -21 -34 -1 -36 0 -18 13 22 16 19 16 39 8z m916 -8 c0 -3 -4 -8 -10
-11 -5 -3 -10 -1 -10 4 0 6 5 11 10 11 6 0 10 -2 10 -4z m48 -44 c2 -7 -1 -12
-8 -12 -6 0 -9 4 -6 9 4 5 1 12 -4 14 -6 3 -5 4 2 3 6 -1 14 -8 16 -14z m107
-112 c-3 -5 -12 -10 -18 -10 -7 0 -6 4 3 10 19 12 23 12 15 0z m-1695 -31 c0
-11 -4 -18 -10 -14 -5 3 -7 12 -3 20 7 21 13 19 13 -6z m78 -44 c-3 -3 -9 2
-12 12 -6 14 -5 15 5 6 7 -7 10 -15 7 -18z m725 11 c6 -15 -17 -16 -30 -1 -4
4 -2 5 5 1 6 -4 12 -2 12 3 0 15 7 14 13 -3z m1082 -126 c3 -5 -1 -10 -9 -10
-9 0 -16 5 -16 10 0 6 4 10 9 10 6 0 13 -4 16 -10z m-330 -280 c3 -5 1 -10 -4
-10 -6 0 -11 5 -11 10 0 6 2 10 4 10 3 0 8 -4 11 -10z"/>
<path d="M1064 2322 c3 -5 0 -13 -6 -15 -9 -4 -10 -6 -1 -6 17 -1 25 16 12 25
-7 4 -9 3 -5 -4z"/>
<path d="M873 2286 c0 -15 22 -15 34 0 4 5 4 6 -1 2 -5 -4 -14 -3 -21 2 -8 7
-12 5 -12 -4z"/>
<path d="M2570 2273 c24 -37 27 -39 27 -18 0 8 -2 13 -5 10 -2 -2 -13 6 -24
18 -16 18 -16 16 2 -10z"/>
<path d="M1230 2286 c0 -2 7 -7 16 -10 8 -3 12 -2 9 4 -6 10 -25 14 -25 6z"/>
<path d="M725 2240 c3 -5 11 -10 16 -10 6 0 7 5 4 10 -3 6 -11 10 -16 10 -6 0
-7 -4 -4 -10z"/>
<path d="M1370 2240 c0 -4 8 -7 18 -5 9 1 23 -3 31 -9 11 -9 13 -8 9 4 -5 15
-58 25 -58 10z"/>
<path d="M2567 2233 c5 -12 3 -14 -7 -8 -8 5 -11 4 -6 -3 4 -6 13 -9 22 -5 11
4 12 9 3 19 -15 19 -20 18 -12 -3z"/>
<path d="M2042 2218 c2 -9 -1 -16 -7 -15 -5 1 -8 7 -7 12 2 6 0 6 -5 2 -4 -5
-9 -13 -9 -18 -1 -5 -3 -11 -4 -14 -2 -5 -6 -18 -9 -31 0 -4 -9 0 -18 7 -9 8
-14 9 -10 3 4 -7 0 -14 -8 -18 -8 -3 -15 0 -15 6 0 17 -11 3 -15 -19 -1 -10
-8 -17 -14 -15 -17 3 -13 -9 7 -24 16 -12 16 -13 0 -10 -10 1 -21 5 -24 9 -17
16 -22 5 -7 -12 9 -11 21 -17 26 -14 6 4 7 1 2 -6 -5 -9 -10 -10 -18 -2 -14
14 -37 14 -37 0 0 -5 5 -7 10 -4 6 3 10 1 10 -4 0 -11 -20 -16 -54 -12 -11 1
-17 -2 -13 -5 3 -4 2 -15 -4 -26 -7 -13 -17 -17 -32 -13 -17 5 -19 4 -7 -4 8
-6 11 -11 6 -11 -5 0 -2 -8 5 -17 10 -11 10 -14 2 -9 -8 4 -13 1 -13 -8 0 -9
-3 -15 -7 -15 -26 4 -63 -3 -63 -12 0 -5 4 -8 9 -5 5 3 15 -2 22 -12 12 -15
12 -16 -2 -4 -13 10 -19 10 -28 -2 -7 -8 -19 -12 -27 -9 -17 6 -19 -13 -2 -23
7 -4 8 -3 4 4 -5 8 -2 10 8 6 25 -10 19 -23 -8 -18 -20 3 -23 1 -19 -16 3 -12
2 -20 -3 -19 -27 5 -64 -2 -59 -11 4 -6 10 -8 14 -6 4 3 8 -2 8 -10 0 -10 -4
-11 -11 -4 -12 12 -29 13 -22 1 8 -12 -4 -41 -16 -41 -6 0 -5 6 2 15 10 12 10
15 -2 15 -12 0 -16 -12 -20 -57 -1 -7 -7 -13 -15 -13 -7 0 -13 6 -13 13 0 8
-3 8 -8 1 -4 -6 -15 -13 -24 -17 -10 -3 -15 -12 -12 -20 3 -9 -3 -16 -15 -20
-14 -3 -21 -13 -21 -29 0 -34 -10 -41 -32 -21 -13 12 -22 13 -29 6 -8 -8 -6
-11 6 -10 10 1 20 -4 23 -12 3 -10 -2 -13 -20 -9 -16 3 -25 0 -25 -9 0 -7 7
-13 15 -13 9 0 12 -3 9 -7 -4 -3 -21 -6 -39 -5 l-33 1 25 -15 c22 -13 22 -14
3 -9 -18 5 -21 2 -18 -20 2 -24 0 -26 -29 -23 -26 2 -32 -1 -34 -19 -3 -20
-18 -28 -44 -24 -4 0 -7 -9 -5 -21 1 -12 -4 -23 -10 -24 -26 -3 -28 -5 -13
-15 13 -9 13 -10 0 -6 -8 2 -14 10 -13 16 2 6 -6 11 -17 11 -22 0 -26 10 -10
26 7 7 6 11 -5 12 -8 1 -22 3 -30 4 -8 1 -12 4 -10 8 8 13 -12 29 -41 32 -24
1 -30 7 -32 26 -3 33 -10 42 -35 42 -13 0 -17 3 -11 8 7 4 8 15 3 27 -4 11 -8
14 -8 8 -1 -9 -8 -10 -25 -3 -13 5 -27 7 -30 4 -3 -2 -4 -1 -1 2 2 4 0 15 -6
25 -8 15 -6 19 8 19 15 0 16 2 3 10 -21 13 -43 12 -34 -2 4 -7 3 -8 -4 -4 -7
4 -12 17 -12 29 0 18 -6 23 -32 25 -39 3 -42 6 -43 39 0 15 -7 28 -15 30 -12
4 -12 3 -2 -5 11 -8 11 -10 0 -15 -10 -3 -15 4 -16 26 -3 39 -2 38 -50 40 -36
1 -39 3 -30 20 7 14 7 17 -1 13 -6 -4 -11 -1 -11 6 0 10 -3 9 -11 -2 -9 -12
-10 -10 -6 8 5 22 4 23 -12 8 -9 -9 -27 -14 -40 -11 -17 3 -21 0 -17 -10 8
-22 -2 -18 -14 4 -9 17 -7 19 10 16 11 -2 20 0 20 5 0 5 -15 7 -32 6 -27 -2
-33 -7 -33 -27 0 -13 5 -27 10 -31 6 -4 -5 -8 -22 -9 -18 -1 -37 -3 -43 -4 -5
-1 -13 -3 -16 -4 -4 0 -1 -8 6 -16 7 -8 8 -15 3 -15 -5 0 -9 -23 -8 -51 1 -40
6 -53 21 -61 18 -9 18 -9 0 6 -12 10 -15 16 -7 16 11 0 11 3 0 18 -13 15 -12
16 3 3 10 -7 16 -17 13 -21 -3 -5 0 -12 6 -15 5 -4 8 -13 5 -21 -7 -19 14 -30
25 -13 7 12 9 11 9 -2 0 -8 -5 -20 -11 -26 -7 -7 -4 -10 13 -9 17 1 23 -4 23
-18 0 -15 8 -21 30 -23 65 -7 62 -5 38 -24 -11 -10 -14 -10 -9 -1 4 6 3 12 -3
12 -5 0 -9 -9 -8 -20 1 -13 5 -16 11 -10 16 16 29 12 24 -8 -6 -20 18 -49 24
-30 3 8 9 8 24 -1 11 -8 13 -11 3 -8 -9 3 -16 -1 -16 -8 0 -8 8 -12 20 -9 15
2 18 -1 14 -16 -3 -11 -1 -18 4 -14 5 3 9 0 9 -5 0 -6 5 -11 12 -11 9 0 9 3 0
12 -17 17 -15 28 5 28 9 0 13 -3 10 -6 -3 -4 -2 -15 4 -25 7 -13 6 -19 -1 -19
-7 0 -6 -5 2 -14 7 -8 21 -12 31 -10 10 1 17 -3 17 -12 0 -9 -5 -12 -13 -8 -8
5 -9 4 -2 -4 9 -10 36 -18 68 -21 4 -1 7 -14 7 -30 0 -16 6 -31 14 -34 10 -4
12 0 9 14 -3 11 0 19 6 19 7 0 10 -4 7 -9 -11 -17 5 -40 25 -36 11 2 17 0 14
-6 -4 -5 -10 -7 -15 -4 -5 3 -11 1 -15 -5 -6 -10 6 -14 40 -10 19 2 19 1 2
-17 -14 -16 -14 -20 -2 -20 8 0 12 4 9 9 -9 15 11 8 36 -13 21 -17 21 -19 3
-10 -18 9 -21 8 -19 -7 2 -9 8 -18 14 -18 7 -1 15 -3 20 -4 4 -1 11 -2 15 -1
4 1 15 -5 23 -14 9 -8 11 -15 5 -15 -5 0 -13 5 -16 10 -8 13 -25 3 -24 -13 0
-8 2 -8 6 1 4 10 8 10 19 1 7 -6 21 -9 29 -5 9 3 15 0 15 -8 0 -8 6 -16 13
-19 9 -3 9 -7 -2 -20 -7 -10 -10 -17 -6 -17 4 0 14 8 22 17 14 17 14 17 10 -2
-3 -16 2 -20 24 -20 15 -1 25 3 23 7 -3 5 -9 6 -14 3 -14 -9 -23 16 -11 28 9
9 10 7 5 -7 -5 -13 -4 -17 3 -13 6 4 17 2 25 -5 20 -19 45 -23 30 -5 -12 14
-6 27 12 27 6 0 4 -5 -4 -10 -13 -8 -13 -10 1 -10 10 0 19 11 22 28 6 29 27
36 55 18 13 -8 15 -2 13 27 -2 15 13 22 40 19 3 -1 6 9 6 21 1 42 3 47 26 47
29 0 51 15 43 29 -4 7 1 11 13 11 24 0 36 17 33 46 -2 15 4 23 18 27 30 8 30
8 28 0 -2 -5 -7 -7 -11 -5 -5 1 -6 -2 -2 -8 11 -17 35 8 32 33 -1 17 3 22 20
21 13 -1 20 3 17 7 -3 5 1 9 8 9 9 0 9 3 -2 10 -9 6 -10 10 -3 10 7 0 10 9 8
21 -3 12 -2 19 2 16 3 -4 14 -2 24 3 13 8 19 6 22 -8 4 -16 5 -16 6 1 0 10 5
16 10 13 5 -3 8 2 7 12 -1 11 6 16 17 15 14 -1 18 4 14 18 -4 14 -1 19 10 17
9 -2 17 5 18 15 2 9 -1 15 -6 11 -5 -3 -6 -11 -3 -17 4 -7 3 -8 -1 -4 -16 14
-13 35 4 32 9 -1 21 0 26 4 6 3 15 6 20 6 6 0 10 7 10 15 0 8 9 17 20 20 16 4
20 13 19 36 -1 26 3 31 20 30 11 -1 26 -12 33 -26 9 -17 13 -20 13 -8 0 9 -4
20 -10 23 -22 13 -10 43 19 50 28 6 49 43 37 64 -3 4 1 8 8 8 8 0 12 -7 8 -15
-3 -10 -1 -13 6 -8 7 4 12 14 12 22 0 15 20 15 33 -1 4 -5 5 2 3 16 -4 23 0
28 27 33 25 5 29 9 17 16 -12 8 -12 10 -1 10 8 0 11 3 8 7 -8 7 11 33 24 33 5
0 9 -7 9 -15 0 -8 5 -15 11 -15 5 0 8 4 5 8 -12 19 -14 59 -3 59 51 -1 54 2
59 60 1 7 5 10 10 7 4 -3 11 2 14 10 3 9 10 16 16 16 5 0 6 -4 3 -10 -3 -6 1
-7 10 -4 17 7 15 29 -3 29 -20 0 -23 12 -5 26 11 9 14 10 9 2 -4 -7 -3 -13 2
-13 14 0 8 95 -6 96 -7 1 -23 2 -37 3 -20 1 -25 6 -25 27 l0 26 -20 -23 c-17
-20 -19 -20 -9 -3 8 14 9 26 2 38 -9 17 -11 17 -16 2 -4 -10 -3 -15 3 -11 6 3
10 2 10 -3 0 -6 -15 -10 -34 -9 -19 0 -33 4 -31 7 2 3 -1 12 -6 20 -8 13 -9
12 -7 -2z m2 -60 c-3 -5 -12 -4 -20 3 -7 6 -11 15 -8 21 3 5 12 4 20 -3 7 -6
11 -15 8 -21z m-64 -22 c0 -2 -8 -10 -17 -17 -16 -13 -17 -12 -4 4 13 16 21
21 21 13z m235 -23 c-2 -38 -21 -47 -21 -10 0 19 5 34 12 34 6 0 10 -11 9 -24z
m-395 -133 c0 -5 -8 -10 -17 -10 -15 0 -16 2 -3 10 19 12 20 12 20 0z m-1242
-125 c-3 -3 -9 2 -12 12 -6 14 -5 15 5 6 7 -7 10 -15 7 -18z m-62 -76 c-1 -15
-7 -33 -13 -39 -10 -7 -10 -7 -3 2 14 17 12 31 -2 22 -10 -6 -10 -5 -1 7 9 11
9 19 2 26 -6 6 -5 10 4 10 8 0 13 -11 13 -28z m974 -493 c0 -3 -4 -8 -10 -11
-5 -3 -10 -1 -10 4 0 6 5 11 10 11 6 0 10 -2 10 -4z m-62 -51 c-3 -3 -9 2 -12
12 -6 14 -5 15 5 6 7 -7 10 -15 7 -18z m-278 -135 c0 -5 -2 -10 -4 -10 -3 0
-8 5 -11 10 -3 6 -1 10 4 10 6 0 11 -4 11 -10z m94 2 c3 -5 -1 -9 -9 -9 -8 0
-12 4 -9 9 3 4 7 8 9 8 2 0 6 -4 9 -8z"/>
<path d="M2070 2220 c0 -5 5 -10 11 -10 5 0 7 5 4 10 -3 6 -8 10 -11 10 -2 0
-4 -4 -4 -10z"/>
<path d="M2583 2180 c0 -16 3 -30 7 -30 3 0 6 14 6 30 0 17 -3 30 -6 30 -4 0
-7 -13 -7 -30z"/>
<path d="M2555 2180 c3 -5 8 -10 11 -10 2 0 4 5 4 10 0 6 -5 10 -11 10 -5 0
-7 -4 -4 -10z"/>
<path d="M1490 2171 c0 -5 5 -13 10 -16 6 -3 10 -2 10 4 0 5 -4 13 -10 16 -5
3 -10 2 -10 -4z"/>
<path d="M1834 2128 c-3 -5 0 -7 7 -6 7 2 13 -2 14 -9 0 -22 11 -22 11 1 0 22
-21 32 -32 14z"/>
<path d="M2570 2129 c0 -5 -4 -8 -8 -5 -5 3 -9 -1 -9 -9 0 -13 4 -12 19 2 21
18 22 23 8 23 -5 0 -10 -5 -10 -11z"/>
<path d="M2577 2102 c-10 -10 -14 -22 -11 -25 4 -4 1 -14 -7 -23 -13 -16 -12
-16 8 -4 18 12 20 17 10 29 -10 12 -9 14 3 9 11 -4 16 0 16 13 0 23 1 23 -19
1z"/>
<path d="M1602 2090 c7 -11 14 -16 16 -10 2 6 9 7 14 4 7 -4 8 -2 4 5 -4 6
-12 9 -17 6 -5 -4 -9 -1 -9 4 0 6 -5 11 -10 11 -6 0 -5 -8 2 -20z"/>
<path d="M1790 2066 c0 -2 7 -7 16 -10 8 -3 12 -2 9 4 -6 10 -25 14 -25 6z"/>
<path d="M2567 2036 c-10 -8 -15 -16 -10 -18 4 -3 16 3 26 14 20 21 10 24 -16
4z"/>
<path d="M1665 2031 c-3 -5 -2 -12 3 -15 5 -3 9 1 9 9 0 17 -3 19 -12 6z"/>
<path d="M430 2015 c-7 -9 -8 -15 -2 -15 5 0 12 7 16 15 3 8 4 15 2 15 -2 0
-9 -7 -16 -15z"/>
<path d="M2586 2014 c-3 -9 -2 -22 2 -31 6 -10 9 -5 9 16 0 35 -2 38 -11 15z"/>
<path d="M2179 1988 c-6 -21 -5 -37 2 -32 5 3 6 10 3 16 -5 7 -1 9 9 5 10 -3
17 -2 17 3 0 8 -28 15 -31 8z"/>
<path d="M2567 1973 c4 -10 2 -14 -4 -10 -5 3 -10 -1 -10 -9 0 -9 4 -11 10 -5
5 5 16 7 24 4 12 -5 11 -1 -3 15 -22 26 -25 27 -17 5z"/>
<path d="M1750 1959 c0 -5 5 -7 10 -4 6 3 10 8 10 11 0 2 -4 4 -10 4 -5 0 -10
-5 -10 -11z"/>
<path d="M2570 1920 c0 -22 15 -27 26 -8 5 7 3 8 -6 3 -10 -6 -12 -4 -7 8 3
10 2 17 -3 17 -6 0 -10 -9 -10 -20z"/>
<path d="M347 1903 c3 -7 9 -10 14 -7 14 8 11 21 -5 21 -8 0 -12 -6 -9 -14z"/>
<path d="M2105 1900 c3 -5 8 -10 11 -10 2 0 4 5 4 10 0 6 -5 10 -11 10 -5 0
-7 -4 -4 -10z"/>
<path d="M643 1893 c-15 -5 -17 -23 -4 -23 5 0 11 7 15 15 3 8 4 15 3 14 -1 0
-8 -3 -14 -6z"/>
<path d="M2558 1883 c6 -3 12 -9 12 -14 0 -6 -5 -7 -12 -3 -7 4 -8 3 -4 -4 9
-15 9 -15 28 7 15 17 14 18 -11 18 -14 0 -20 -2 -13 -4z"/>
<path d="M2065 1871 c-3 -5 -2 -12 3 -15 5 -3 9 1 9 9 0 17 -3 19 -12 6z"/>
<path d="M2586 1854 c-3 -9 -2 -22 2 -31 6 -10 9 -5 9 16 0 35 -2 38 -11 15z"/>
<path d="M715 1840 c-3 -6 1 -7 9 -4 18 7 21 14 7 14 -6 0 -13 -4 -16 -10z"/>
<path d="M2567 1813 c4 -10 2 -14 -4 -10 -5 3 -10 -1 -10 -9 0 -9 4 -11 10 -5
5 5 16 7 24 4 12 -5 11 -1 -3 15 -22 26 -25 27 -17 5z"/>
<path d="M312 1797 c-8 -10 -6 -13 7 -13 11 0 17 6 14 13 -3 7 -6 13 -8 13 -1
0 -7 -6 -13 -13z"/>
<path d="M2570 1761 c0 -10 6 -23 13 -29 10 -8 13 -6 13 8 0 10 -5 16 -10 13
-5 -4 -7 1 -3 10 3 10 2 17 -3 17 -6 0 -10 -8 -10 -19z"/>
<path d="M833 1759 c3 -9 1 -21 -4 -26 -6 -6 -4 -10 5 -10 14 0 14 33 0 46 -4
3 -5 -1 -1 -10z"/>
<path d="M1987 1759 c7 -7 15 -10 18 -7 3 3 -2 9 -12 12 -14 6 -15 5 -6 -5z"/>
<path d="M1535 1740 c3 -5 8 -10 11 -10 2 0 4 5 4 10 0 6 -5 10 -11 10 -5 0
-7 -4 -4 -10z"/>
<path d="M2558 1723 c6 -2 12 -9 12 -14 0 -6 -5 -7 -12 -3 -7 4 -8 3 -4 -4 4
-6 13 -9 22 -5 11 4 12 9 3 19 -6 8 -17 14 -23 13 -7 0 -6 -2 2 -6z"/>
<path d="M1880 1681 c0 -6 4 -12 8 -15 5 -3 9 1 9 9 0 8 -4 15 -9 15 -4 0 -8
-4 -8 -9z"/>
<path d="M2583 1660 c0 -16 3 -30 7 -30 3 0 6 14 6 30 0 17 -3 30 -6 30 -4 0
-7 -13 -7 -30z"/>
<path d="M275 1671 c-3 -5 0 -13 6 -17 7 -4 9 -3 5 4 -3 5 0 13 6 15 9 4 10 6
1 6 -6 1 -14 -3 -18 -8z"/>
<path d="M2559 1663 c0 -5 -2 -16 -4 -26 -2 -11 -1 -16 3 -13 8 8 14 46 7 46
-3 0 -5 -3 -6 -7z"/>
<path d="M1836 1651 c-4 -5 -2 -12 3 -15 5 -4 12 -2 15 3 4 5 2 12 -3 15 -5 4
-12 2 -15 -3z"/>
<path d="M945 1620 c3 -5 11 -10 16 -10 6 0 7 5 4 10 -3 6 -11 10 -16 10 -6 0
-7 -4 -4 -10z"/>
<path d="M1859 1628 c-5 -18 -3 -58 4 -58 5 0 4 -7 -3 -15 -8 -10 -9 -15 -2
-15 6 0 9 -6 6 -14 -3 -8 -1 -17 4 -20 5 -3 9 17 8 49 0 30 -5 55 -9 55 -5 0
-5 5 -2 10 3 6 4 10 1 10 -3 0 -6 -1 -7 -2z"/>
<path d="M2566 1604 c-5 -14 -4 -15 9 -4 17 14 19 20 6 20 -5 0 -12 -7 -15
-16z"/>
<path d="M2574 1582 c-17 -14 -18 -20 -8 -30 19 -18 29 -15 13 5 -12 14 -12
16 1 11 11 -4 16 0 16 13 0 11 0 19 -1 19 0 -1 -9 -9 -21 -18z"/>
<path d="M600 1540 c-9 -6 -10 -10 -3 -10 6 0 15 5 18 10 8 12 4 12 -15 0z"/>
<path d="M1755 1539 c-4 -6 -5 -12 -2 -15 2 -3 7 2 10 11 7 17 1 20 -8 4z"/>
<path d="M1052 1518 c3 -7 13 -15 23 -17 17 -3 17 -2 3 13 -20 19 -31 21 -26
4z"/>
<path d="M2565 1522 c2 -3 -1 -14 -7 -26 -9 -18 -9 -19 3 -6 8 8 20 20 28 27
11 10 10 12 -7 10 -12 0 -19 -3 -17 -5z"/>
<path d="M2586 1494 c-3 -9 -2 -22 2 -31 6 -10 9 -5 9 16 0 35 -2 38 -11 15z"/>
<path d="M1857 1473 c-11 -11 -8 -21 9 -27 13 -5 14 -4 6 7 -7 8 -9 17 -5 20
3 4 4 7 1 7 -2 0 -8 -3 -11 -7z"/>
<path d="M266 1462 c-2 -4 4 -8 14 -8 10 0 16 4 14 8 -3 4 -9 8 -14 8 -5 0
-11 -4 -14 -8z"/>
<path d="M2559 1461 c7 -5 11 -13 8 -18 -3 -5 3 -9 13 -10 17 -2 18 0 2 18 -9
10 -21 19 -27 19 -5 0 -4 -4 4 -9z"/>
<path d="M1181 1436 c-9 -10 -8 -15 3 -19 11 -4 13 -1 9 10 -5 12 -3 14 7 8 9
-5 11 -4 6 3 -9 15 -11 15 -25 -2z"/>
<path d="M1621 1431 c-8 -5 -9 -11 -3 -15 5 -3 12 1 16 9 6 17 6 18 -13 6z"/>
<path d="M2570 1400 c0 -22 15 -27 26 -8 5 7 3 8 -6 3 -10 -6 -12 -4 -7 8 3
10 2 17 -3 17 -6 0 -10 -9 -10 -20z"/>
<path d="M275 1401 c-3 -5 -2 -12 3 -15 5 -3 9 1 9 9 0 17 -3 19 -12 6z"/>
<path d="M2567 1357 c2 -4 -1 -14 -7 -22 -21 -25 -5 -16 18 9 19 23 19 25 2
23 -10 -1 -16 -5 -13 -10z"/>
<path d="M2127 1354 c-8 -8 1 -24 14 -24 5 0 9 7 9 15 0 15 -12 20 -23 9z"/>
<path d="M2586 1334 c-3 -9 -2 -22 2 -31 6 -10 9 -5 9 16 0 35 -2 38 -11 15z"/>
<path d="M863 1309 c-2 -23 3 -25 10 -4 4 8 3 16 -1 19 -4 3 -9 -4 -9 -15z"/>
<path d="M2559 1301 c7 -5 11 -13 8 -18 -3 -5 3 -9 13 -10 17 -2 18 0 2 18 -9
10 -21 19 -27 19 -5 0 -4 -4 4 -9z"/>
<path d="M2130 1280 c0 -5 5 -10 10 -10 6 0 10 5 10 10 0 6 -4 10 -10 10 -5 0
-10 -4 -10 -10z"/>
<path d="M295 1260 c3 -5 8 -10 11 -10 2 0 4 5 4 10 0 6 -5 10 -11 10 -5 0 -7
-4 -4 -10z"/>
<path d="M2570 1241 c0 -10 6 -23 13 -29 10 -8 13 -6 13 8 0 10 -5 16 -10 13
-5 -4 -7 1 -3 10 3 10 2 17 -3 17 -6 0 -10 -8 -10 -19z"/>
<path d="M1385 1201 c-6 -11 9 -23 19 -14 9 9 7 23 -3 23 -6 0 -12 -4 -16 -9z"/>
<path d="M1426 1198 c3 -5 10 -6 15 -3 13 9 11 12 -6 12 -8 0 -12 -4 -9 -9z"/>
<path d="M2564 1202 c4 -7 2 -20 -6 -30 -12 -16 -11 -16 7 -2 11 8 21 15 23
16 1 1 -5 7 -15 15 -12 10 -15 10 -9 1z"/>
<path d="M2583 1140 c0 -16 3 -30 7 -30 3 0 6 14 6 30 0 17 -3 30 -6 30 -4 0
-7 -13 -7 -30z"/>
<path d="M2555 1140 c3 -5 8 -10 11 -10 2 0 4 5 4 10 0 6 -5 10 -11 10 -5 0
-7 -4 -4 -10z"/>
<path d="M2063 1115 c0 -11 4 -12 14 -4 7 6 13 13 13 15 0 2 -6 4 -13 4 -8 0
-14 -7 -14 -15z"/>
<path d="M380 1100 c0 -6 7 -10 15 -10 8 0 15 2 15 4 0 2 -7 6 -15 10 -8 3
-15 1 -15 -4z"/>
<path d="M2570 1089 c0 -5 -4 -8 -8 -5 -5 3 -9 -1 -9 -9 0 -13 4 -12 19 2 21
18 22 23 8 23 -5 0 -10 -5 -10 -11z"/>
<path d="M2578 1063 c-16 -19 -14 -43 4 -43 6 0 4 7 -3 17 -12 14 -12 16 1 11
11 -4 16 0 16 13 0 23 1 23 -18 2z"/>
<path d="M1676 1042 c-3 -5 1 -9 9 -9 8 0 12 4 9 9 -3 4 -7 8 -9 8 -2 0 -6 -4
-9 -8z"/>
<path d="M2560 1000 c9 -6 9 -9 -1 -12 -7 -2 -9 -7 -4 -10 6 -2 17 3 26 12 15
16 15 18 -8 18 -16 0 -20 -3 -13 -8z"/>
<path d="M2586 974 c-3 -9 -2 -22 2 -31 6 -10 9 -5 9 16 0 35 -2 38 -11 15z"/>
<path d="M1626 957 c3 -10 9 -15 12 -12 3 3 0 11 -7 18 -10 9 -11 8 -5 -6z"/>
<path d="M2567 933 c4 -10 2 -14 -4 -10 -5 3 -10 -1 -10 -9 0 -9 4 -11 10 -5
5 5 16 7 24 4 12 -5 11 -1 -3 15 -22 26 -25 27 -17 5z"/>
<path d="M510 934 c0 -17 24 -34 37 -26 8 5 9 13 3 22 -8 12 -10 11 -10 -4 0
-20 0 -20 -15 0 -8 10 -15 14 -15 8z"/>
<path d="M2562 885 c-7 -8 -9 -15 -4 -15 5 0 15 7 22 15 16 19 -1 19 -18 0z"/>
<path d="M1510 879 c0 -10 27 -19 34 -12 12 12 5 22 -14 20 -11 -1 -20 -4 -20
-8z"/>
<path d="M2020 875 c0 -9 6 -12 15 -9 8 4 12 10 9 15 -8 14 -24 10 -24 -6z"/>
<path d="M2581 866 c-9 -10 -9 -16 -1 -21 6 -4 14 -4 17 -1 4 3 1 6 -7 6 -10
0 -10 3 0 15 7 8 10 15 7 15 -2 0 -10 -6 -16 -14z"/>
<path d="M1496 847 c3 -10 9 -15 12 -12 3 3 0 11 -7 18 -10 9 -11 8 -5 -6z"/>
<path d="M195 841 c-3 -5 -2 -12 3 -15 5 -3 9 1 9 9 0 17 -3 19 -12 6z"/>
<path d="M2055 840 c-3 -6 1 -7 9 -4 18 7 21 14 7 14 -6 0 -13 -4 -16 -10z"/>
<path d="M685 809 c-4 -5 -4 -13 -1 -16 3 -4 6 0 6 8 0 11 2 11 10 -1 6 -9 10
-10 10 -3 0 17 -17 25 -25 12z"/>
<path d="M1415 800 c3 -5 8 -10 11 -10 2 0 4 5 4 10 0 6 -5 10 -11 10 -5 0 -7
-4 -4 -10z"/>
<path d="M266 757 c3 -10 9 -15 12 -12 3 3 0 11 -7 18 -10 9 -11 8 -5 -6z"/>
<path d="M1070 729 c0 -5 5 -7 10 -4 6 3 10 8 10 11 0 2 -4 4 -10 4 -5 0 -10
-5 -10 -11z"/>
<path d="M296 722 c-3 -5 1 -9 9 -9 8 0 12 4 9 9 -3 4 -7 8 -9 8 -2 0 -6 -4
-9 -8z"/>
<path d="M345 680 c3 -5 8 -10 11 -10 2 0 4 5 4 10 0 6 -5 10 -11 10 -5 0 -7
-4 -4 -10z"/>
<path d="M486 568 c3 -5 10 -6 15 -3 13 9 11 12 -6 12 -8 0 -12 -4 -9 -9z"/>
<path d="M1531 524 c0 -11 3 -14 6 -6 3 7 2 16 -1 19 -3 4 -6 -2 -5 -13z"/>
<path d="M1466 507 c3 -8 11 -14 19 -14 20 0 19 4 -5 17 -15 8 -18 8 -14 -3z"/>
<path d="M1715 500 c3 -5 8 -10 11 -10 2 0 4 5 4 10 0 6 -5 10 -11 10 -5 0 -7
-4 -4 -10z"/>
<path d="M2436 475 c-3 -8 -1 -15 4 -15 6 0 10 7 10 15 0 8 -2 15 -4 15 -2 0
-6 -7 -10 -15z"/>
<path d="M1360 476 c0 -2 8 -10 18 -17 15 -13 16 -12 3 4 -13 16 -21 21 -21
13z"/>
<path d="M1842 391 c-11 -6 -10 -10 4 -15 20 -8 32 0 18 14 -5 5 -15 5 -22 1z"/>
<path d="M2536 354 c-5 -14 -4 -15 9 -4 17 14 19 20 6 20 -5 0 -12 -7 -15 -16z"/>
<path d="M1940 280 c-9 -6 -10 -10 -3 -10 6 0 15 5 18 10 8 12 4 12 -15 0z"/>
<path d="M2064 158 c-4 -6 -3 -8 4 -4 5 3 13 0 15 -6 3 -8 6 -6 6 5 1 19 -14
23 -25 5z"/>
<path d="M2190 42 c0 -12 3 -12 15 -2 8 7 15 13 15 15 0 1 -7 2 -15 2 -8 0
-15 -7 -15 -15z"/>
</g>
</svg>
